# xmcd CD database file
#
# Track frame offsets:
#	150
#	15475
#	34808
#	52953
#	69252
#	92405
#	105993
#	127898
#	154409
#	176488
#	188458
#	204663
#	226851
#	246337
#	263007
#	278073
#
# Disc length: 3979 seconds
#
# Revision: 0
# Processed by: cddbd v1.5.1PL2 Copyright (c) Steve Scherf et al.
# Submitted via: CDex 1.60beta1
#
DISCID=c30f8910
DTITLE=Christine Dickinson and Matthew Lyons - Fragile Beauty
DYEAR=2002
DGENRE=New Age
TTITLE0=Snow on Balsams
TTITLE1=Fragile Beauty
TTITLE2=Watching the Stars
TTITLE3=Big Meadows
TTITLE4=Mora Road
TTITLE5=A Muse for Amy
TTITLE6=Heron's Flight
TTITLE7=The Changing Picture
TTITLE8=Spring Valley, Montana
TTITLE9=Their City of Sand
TTITLE10=The Mother Cedar
TTITLE11=Waltz for Day's End
TTITLE12=Stories by the Fire
TTITLE13=Be Thou My Vision
TTITLE14=Stones Along the Shore
TTITLE15=The Road Home
EXTD=YEAR: 2002
EXTT0=
EXTT1=
EXTT2=
EXTT3=
EXTT4=
EXTT5=
EXTT6=
EXTT7=
EXTT8=
EXTT9=
EXTT10=
EXTT11=
EXTT12=
EXTT13=
EXTT14=
EXTT15=
PLAYORDER=
